PathFileType	4	(X/Y/Z)	8_coords_data.trc
DataRate	CameraRate	NumFrames	NumMarkers	Units	OrigDataRate	OrigDataStartFrame	OrigNumFrames
30.0	30.0	5	21	m	30.0	1	47
Frame#	Time	THUMB_TIP	THUMB_IP	THUMB_MCP	THUMB_CMC	INDEX_TIP	INDEX_DIP	INDEX_PIP	INDEX_MCP	MIDDLE_TIP	MIDDLE_DIP	MIDDLE_PIP	MIDDLE_MCP	RING_TIP	RING_DIP	RING_PIP	RING_MCP	PINKY_TIP	PINKY_DIP	PINKY_PIP	PINKY_MCP	WRIST
X1	Y1	Z1	X2	Y2	Z2	X3	Y3	Z3	X4	Y4	Z4	X5	Y5	Z5	X6	Y6	Z6	X7	Y7	Z7	X8	Y8	Z8	X9	Y9	Z9	X10	Y10	Z10	X11	Y11	Z11	X12	Y12	Z12	X13	Y13	Z13	X14	Y14	Z14	X15	Y15	Z15	X16	Y16	Z16	X17	Y17	Z17	X18	Y18	Z18	X19	Y19	Z19	X20	Y20	Z20	X21	Y21	Z21
0	-2.749317978547796e-18	0.5430390741486614	0.005855783583162633	-0.10991845176320127	0.5248508310783498	-0.005660282206500167	-0.11795387600485913	0.4955191195643872	-0.015319573014870524	-0.11405916154279631	0.48260646285303566	-0.023598822480454085	-0.07217112834784405	0.49984242542563195	-0.004366143487304908	-0.10800765653866914	0.5157158348124753	-0.008497938863201937	-0.11568640262181247	0.5255950536328846	0.013121445633234696	-0.123872554495172	0.49301124481705694	0.03415645090161534	-0.10628107785411688	0.5063356611368165	-0.017995790566765035	-0.10727731602865957	0.5218667400196838	-0.00940252353204507	-0.10367990718281717	0.5369516665256799	0.015378815783006594	-0.10646195032787606	0.5032325854051538	0.0378286666062323	-0.08761584496357623	0.538392885587208	0.003327506528233548	-0.08864475325978904	0.5248176027843504	-0.008349232741287738	-0.08655538568703891	0.5442919737926295	0.007077958093533843	-0.08826729566653702	0.516871727193081	0.03201215256342527	-0.0721075661961039	0.5098792662960732	-0.021531332669252223	-0.07095751940353098	0.5259800391396241	-0.022267696742599097	-0.07672144877435595	0.5422312072133866	-0.009046199443874747	-0.07534175155462151	0.5241017256324954	0.016955220231210655	-0.05813327912130509	0.4622830810018609	-0.023011742144276925	-0.051989820119430985
1	0.03333333333333339	0.5438538681086379	0.006248759532640258	-0.10945998979621364	0.5259532816147949	-0.005553994296405684	-0.11772219320858453	0.49655007486942204	-0.015025552459599467	-0.1139063028734071	0.48213764984945273	-0.02385286061795444	-0.0726237322688384	0.4988938179253728	-0.004015180143753905	-0.10824413949997594	0.5149634898546411	-0.007563670593357941	-0.11580547930286496	0.525872347789258	0.013459913393561118	-0.12423255281075066	0.4929965933097551	0.0339338808301608	-0.10652273861611528	0.5049934788215504	-0.016980320912123315	-0.10530395504209207	0.5212124551145625	-0.009211511590246357	-0.10316143089356186	0.537316294653204	0.014804740315030873	-0.10680773676882169	0.5036618917116017	0.037340504584492895	-0.08794856360466846	0.5385521400984729	0.003381285640763343	-0.08882491773199046	0.5250649743049439	-0.008398125590881378	-0.08674121192414067	0.5444850860505049	0.007063389821539534	-0.08873640112353925	0.516928555707959	0.031805491790562135	-0.07251336627691357	0.5096471626573449	-0.020324722975269993	-0.07053509957753065	0.525738296880643	-0.021917783348738284	-0.07615093059834036	0.5421770794956394	-0.008880151528387947	-0.0753772370841637	0.5240181994400408	0.01708282214852508	-0.05814173523541216	0.4622830810018608	-0.023011742144276925	-0.051989820119430985
2	0.06666666666666676	0.5444206860328225	0.00650051846365951	-0.10907183486067638	0.5267470705246374	-0.005515837037761595	-0.11751283689433951	0.49729109501799285	-0.014844849521305936	-0.11375317826171895	0.48177400313325736	-0.02405841134311537	-0.07295832395389756	0.49828297466155913	-0.003822261591609033	-0.10846379323460428	0.5144996887491048	-0.006890965340865862	-0.11592041723626176	0.5261051876641257	0.013692665191488151	-0.12450158161185738	0.4930077066480909	0.03374065008247995	-0.10671756782970473	0.5041253856365665	-0.01606657881533924	-0.10360471459724092	0.5208228957952793	-0.00909601526716075	-0.10282728400838417	0.5376056163854313	0.014352094245792535	-0.10706237549044734	0.5039978549417885	0.03695642144240352	-0.08820208165032489	0.5385219224719157	0.0035949544094564523	-0.08894370208018404	0.525266395633838	-0.008447385733064916	-0.0868765658638641	0.5446467909997103	0.007035007580266317	-0.08908467631259634	0.5169847807297833	0.03163280908169419	-0.07282176811256022	0.5095366227392716	-0.01935188467917026	-0.07026171514392551	0.5255857601505034	-0.021671636730693056	-0.07574295029440509	0.5421468524844635	-0.008771157315502709	-0.07539672700764535	0.5239639849128689	0.017165405803085898	-0.058146756820154105	0.4622830810018609	-0.023011742144276925	-0.051989820119430985
3	0.10000000000000014	0.5448084599911273	0.006637133144364538	-0.10876627560250139	0.5273028704017965	-0.005527807878464741	-0.11734348628202833	0.49780896560339516	-0.01475143181396632	-0.11362134425904072	0.4815117673120355	-0.024219224896367186	-0.07319051169278076	0.4979135135471666	-0.0037432424507873874	-0.1086432095245672	0.5142352721541469	-0.006442550896285426	-0.1160130080219161	0.5263030457345758	0.013832105419851581	-0.12469154390500309	0.4930421489504363	0.0335742527995293	-0.10687030780999787	0.5036298966536736	-0.01534512541920241	-0.10225572617441529	0.52060463786862	-0.009041919128267573	-0.10261314908851465	0.5378325422378448	0.01400631729434798	-0.1072378284127565	0.5042549919453566	0.03666393269166779	-0.08838766921283017	0.5372797643597602	0.0049451074745647805	-0.08891968559367397	0.5254275406310144	-0.008497734955173697	-0.08696653938998715	0.544782260466817	0.006994429953166237	-0.08932612103307448	0.5170415530684239	0.031490625148846374	-0.07304390963621919	0.5095055509352208	-0.018626411808074894	-0.07009000419799954	0.5254993542800995	-0.02151667185430084	-0.07546072588419156	0.5421381050211923	-0.008711965412768752	-0.07540168588104541	0.5239357837978807	0.017208477037315317	-0.0581480017447438	0.4622830810018609	-0.023011742144276925	-0.051989820119430985
4	0.13333333333333353	0.545067289824933	0.006679776511284263	-0.10854357139342155	0.5276751533284421	-0.005577155679965862	-0.1172200454092028	0.4981550651769526	-0.014725621086007834	-0.11352004861964382	0.48134263740148786	-0.02433997409723876	-0.07333551815740974	0.49772126781065995	-0.003742955141155857	-0.10877270055652791	0.5141136111827388	-0.0061820073181237944	-0.11607626840038955	0.5264732951467413	0.013890674631864552	-0.12481328646404222	0.49309736841676466	0.033431964742018705	-0.10698573504086532	0.5033992346741805	-0.014876066134710708	-0.10130328871471674	0.5205017840607598	-0.00903477050154522	-0.10247890336483603	0.5380081379524816	0.013752455051926127	-0.1073450594446418	0.5044464199579989	0.03645055212030668	-0.08851541803187997	0.5101488479659968	-0.01764755019200326	-0.08479890724478832	0.5255538886192946	-0.008549843024697634	-0.08701621344109874	0.5448959310559183	0.006942817130733969	-0.08947443529604905	0.5170996906371506	0.03137508700870928	-0.07319088404971913	0.5095213278510666	-0.018144388598632433	-0.06998546861449384	0.5254632942629512	-0.021439930215174874	-0.07527632037729878	0.5421481411927026	-0.008695745790732179	-0.07539321899388454	0.5239302179287952	0.01721744916021828	-0.058145116188519946	0.4622830810018609	-0.023011742144276925	-0.051989820119430985
